<svg width="30" height="30" viewBox="0 0 25 26" fill="none" xmlns="http://www.w3.org/2000/svg">
    <path d="M16.1401 14.4402C16.2141 14.4402 16.2852 14.4101 16.3373 14.3581c.1982-.2012 4.8531-4.95924 4.8531-9.3068C21.1904 2.26537 18.924.0 16.1391.0c-2.785.0-5.0513 2.26537-5.0513 5.0513.0 4.34756 4.6549 9.1056 4.8541 9.3068C15.9939 14.4111 16.065 14.4402 16.1401 14.4402zM13.5814 5.0513c0-1.41248 1.1452-2.55868 2.5587-2.55868 1.4135.0 2.5577 1.14519 2.5577 2.55868.0 1.41348-1.1452 2.55869-2.5577 2.55869-1.4125.0-2.5587-1.14521-2.5587-2.55869z" fill="#ff671d"></path>
    <path d="M24.9034 21.9305C24.0595 18.9113 17.9561 17.4147 12.5704 16.0933 9.54023 15.3496 5.76827 14.4246 5.73524 13.6037 5.72823 13.4225 5.97949 12.7398 9.52922 11.5516 9.80551 11.4585 9.96668 11.1842 9.91262 10.8989 9.85856 10.6136 9.60229 10.4164 9.318 10.4304 4.13956 10.6807.501743 12.1602.0482666 14.1993-.172966 15.1944.26149 16.749 3.58398 18.5009L4.29773 18.8763c2.24736 1.1782 3.87106 2.0301 3.88307 2.8229C8.19482 22.6502 5.93745 24.0507 3.72713 25.296 3.58398 25.3761 3.5139 25.5433 3.55495 25.7024 3.59699 25.8616 3.74014 25.9717 3.90431 25.9717H23.0354C23.1315 25.9717 23.2226 25.9337 23.2907 25.8656c1.4064-1.4075 1.949-2.7309 1.6127-3.9351z" fill="#fbc55a"></path>
  </svg>
  