<?xml version="1.0" encoding="UTF-8" standalone="no"?>
<svg
   width="128"
   height="128"
   style="enable-background:new 0 0 128 128;"
   version="1.1"
   id="svg20"
   sodipodi:docname="logo.svg"
   inkscape:version="1.3.2 (091e20ef0f, 2023-11-25, custom)"
   xml:space="preserve"
   xmlns:inkscape="http://www.inkscape.org/namespaces/inkscape"
   xmlns:sodipodi="http://sodipodi.sourceforge.net/DTD/sodipodi-0.dtd"
   xmlns:xlink="http://www.w3.org/1999/xlink"
   xmlns="http://www.w3.org/2000/svg"
   xmlns:svg="http://www.w3.org/2000/svg"><defs
     id="defs20"><linearGradient
       xlink:href="#linearGradient4975"
       id="linearGradient4633"
       gradientUnits="userSpaceOnUse"
       gradientTransform="matrix(231.62575,0,0,231.62472,111.11013,159.99363)"
       x2="0.5565635"
       x1="0.46521288"
       y1="-0.67390651"
       y2="0.81129867" /><linearGradient
       id="linearGradient4975"><stop
         style="stop-color:#1972e7"
         offset="0"
         id="stop4971" /><stop
         style="stop-color:#1969d5"
         offset="1"
         id="stop4973" /></linearGradient><linearGradient
       xlink:href="#3"
       id="linearGradient1331"
       x1="101.74381"
       y1="33.726189"
       x2="101.59915"
       y2="135.466"
       gradientUnits="userSpaceOnUse"
       gradientTransform="matrix(3.7794235,0,0,3.7794067,0.00151555,0.00377865)" /><linearGradient
       id="3"
       x2="1"
       gradientTransform="matrix(61.286,0,0,61.286,29.399,42.333)"
       gradientUnits="userSpaceOnUse"><stop
         offset="0"
         id="stop1397"
         style="stop-color:#afccfb" /><stop
         offset="1"
         id="stop1399"
         style="stop-color:#8bb5f8" /></linearGradient><linearGradient
       xlink:href="#1"
       id="linearGradient2962"
       gradientUnits="userSpaceOnUse"
       gradientTransform="matrix(94.931559,164.42687,-164.4276,94.931137,97.555991,173.61083)"
       x2="1.7695541"
       x1="0.018202547"
       y1="-0.51170158"
       y2="0.4994337" /><linearGradient
       id="1"
       x2="1"
       gradientTransform="matrix(25.118,43.506,-43.506,25.118,25.812,45.935)"
       gradientUnits="userSpaceOnUse"><stop
         offset="0"
         id="stop3122"
         style="stop-color:#659cf6" /><stop
         offset="1"
         id="stop3124"
         style="stop-color:#4285f4" /></linearGradient><linearGradient
       xlink:href="#2"
       id="linearGradient2688"
       x1="67.452377"
       y1="40.320694"
       x2="67.733002"
       y2="95.25"
       gradientUnits="userSpaceOnUse"
       gradientTransform="matrix(3.7794235,0,0,3.7794067,0.00150043,0.00377865)" /><linearGradient
       id="2"><stop
         style="stop-color:#3680f0"
         offset="0"
         id="stop2682" /><stop
         style="stop-color:#2678ec"
         offset="1"
         id="stop2684" /></linearGradient><clipPath
       clipPathUnits="userSpaceOnUse"
       id="clipPath25"><path
         d="m 507.03496,226.71093 c 0.15141,-0.49208 0.15141,-1.02201 -0.0378,-1.62764 -0.90845,-2.87676 -3.40669,-4.84507 -5.07218,-7.34331 -1.93045,-3.02817 -2.38468,-6.88908 -3.10387,-10.33362 -0.68134,-2.91461 -1.32482,-5.82922 -2.15757,-8.70598 -2.00616,-6.73767 -4.92077,-13.70246 -10.52288,-18.24471 -0.56778,-0.49208 -1.21127,-0.90845 -1.85475,-1.32482 -2.49824,-1.55194 -5.4507,-2.11972 -8.25176,-2.7632 -1.62764,-0.37852 -6.4727,-0.94631 -6.85122,-3.10387 -0.52993,-2.99032 3.06601,-2.87676 4.95862,-3.21743 7.1919,-1.32483 -3.74736,-28.42692 -5.22359,-31.83361 C 459.98487,117.96187 445.33611,99.868574 424.51746,91.27615 399.68649,81.018234 372.16802,77.914362 345.558,80.299044 c -13.17252,1.173415 -26.26935,3.066019 -39.29047,5.450701 -12.07481,2.233273 -24.94452,4.201582 -36.45156,8.630276 -2.72535,1.022007 -13.51319,5.185736 -7.87323,9.538729 3.06602,2.34683 6.09418,1.93045 9.76584,1.8169 31.19012,-0.71919 63.55365,-2.6118 93.64606,7.49471 6.58627,2.23327 14.23239,4.88292 17.9419,11.35563 1.17341,2.04401 2.08186,5.22359 1.17341,7.57042 -0.83275,2.15757 -2.95246,1.77904 -4.80722,1.77904 -2.68749,0 -5.33714,-0.18926 -7.98679,-0.26496 -0.68133,0 -1.47623,-0.11356 -2.15757,0 -3.74735,0.56778 -4.99647,4.84507 -7.38115,7.2676 -2.53609,2.6118 -3.33099,3.36884 -7.1919,3.52025 -2.99031,0.11355 -5.82922,0 -8.70598,-0.18927 -2.53609,-0.18926 -4.80722,-0.83274 -7.30545,-0.45422 -3.36884,0.52993 -5.22359,3.7095 -7.45687,6.01848 -2.95246,3.02817 -4.23943,5.52641 -8.66812,6.3213 -5.71567,1.05986 -13.09683,-1.66549 -18.47182,0.64349 -5.94278,2.57394 -7.30546,10.48503 -12.83186,13.5889 -2.34683,1.28697 -5.14789,1.17341 -7.72183,0.98415 -4.23943,-0.30282 -8.36531,-0.41637 -12.6426,-0.41637 -1.40052,0 -2.61179,0.22711 -3.97446,0.56778 -2.99032,0.79489 -5.45071,4.46655 -7.41901,6.66197 -3.33099,3.82306 -5.79137,8.81953 -10.71215,10.82569 -13.05897,5.33715 -27.59417,2.83891 -40.53958,-1.70334 -6.92694,-2.42253 -14.61091,-4.39084 -21.95421,-2.99031 -8.36532,1.55193 -15.70862,6.397 -20.74295,13.21037 -5.86707,7.9868 -5.11003,17.03344 -9.27376,25.43661 -3.74736,7.49471 -9.38732,13.85386 -15.44365,19.56953 -5.63997,5.33714 -12.11267,11.88555 -18.9639,15.59506 -13.17253,7.07834 -27.026392,12.45334 -40.274624,19.30456 -3.823061,2.00617 -7.759678,3.82307 -11.771999,5.60211 -1.551936,0.15141 -3.103872,0.26497 -4.655807,0.26497 -5.261441,0 -10.409325,-0.11356 -15.557209,0.68134 -3.066019,0.49207 -5.829222,1.40052 -8.592424,2.8389 -9.917248,5.11004 -14.043126,15.74647 -13.475344,26.49647 0.03785,0.60563 0.113556,1.21126 0.18926,1.8169 -0.113556,10.86355 12.566894,18.39611 20.970058,22.86266 8.327459,4.39084 17.979742,7.94894 27.329208,9.34946 25.815121,3.89877 52.008771,-7.45686 75.590621,-16.3521 13.66461,-5.18574 27.40491,-10.10651 40.95596,-15.59506 9.80369,-3.97447 19.22886,-8.81954 28.72974,-13.5889 7.19189,-3.59595 14.80016,-7.98679 22.59769,-9.80369 3.40669,-0.79489 7.04049,-1.47623 10.56074,-1.13556 15.67076,1.43838 16.57921,17.48766 11.69629,28.88114 -4.12587,9.57658 -19.07745,16.38996 -27.55632,21.61354 -12.15052,7.49472 -24.83097,14.04313 -36.79223,21.84066 -20.9322,13.62675 -42.84856,29.0704 -66.39256,37.73853 -13.96742,5.11003 -26.64787,5.18574 -41.145224,4.08803 -8.51672,-0.64349 -24.338893,-3.17958 -22.559845,-15.02728 0.151408,-0.90845 0.378521,-1.77905 0.681338,-2.64965 0.264964,-0.83274 0.832746,-1.62764 0.681337,-2.57394 -0.264964,-2.7632 -2.990315,0.11356 -3.823061,1.02201 -3.255279,3.55809 -3.936617,8.06249 -3.368836,12.7183 0.567782,4.76936 3.066019,10.40932 7.078341,13.21038 27.29136,19.1153 64.04573,12.26407 92.09413,-0.64349 8.63028,-3.93662 16.88203,-8.55457 25.3609,-12.75615 12.07482,-5.98063 24.75527,-10.48503 37.58713,-14.3838 30.43308,-9.34946 63.55366,-13.7403 88.23322,-36.22445 6.28344,-5.71566 10.74999,-12.94541 15.36795,-19.9859 2.19542,-3.33098 4.31513,-6.01848 8.17605,-7.15404 4.01232,-1.21127 7.72182,-3.21743 11.8477,-4.16373 2.00616,-0.45423 4.35299,-0.7949 6.397,-0.26497 5.79137,1.55194 6.81338,7.91109 8.28961,12.86971 0.37852,1.36268 0.41637,2.7632 0.60564,4.16373 0.30281,2.42254 0.52992,4.35299 0.11355,6.73767 -0.34067,1.77905 -0.75704,3.59595 -0.71919,5.41285 0.0378,2.15757 0.90845,4.27729 2.83891,5.4507 1.93045,1.21127 4.95862,1.13557 7.15404,0.7949 2.95247,-0.37852 5.75352,-1.36268 8.51672,-2.42254 1.13557,-0.45422 2.34683,-0.71919 3.5581,-1.022 4.01232,-1.13557 8.1382,-1.51409 12.26408,-1.28697 3.33098,0.18926 7.11619,0.30281 10.18221,-1.43838 2.23327,-1.28697 2.6875,-3.74736 3.59595,-5.94278 0.68133,-1.58979 1.74119,-3.29313 3.17957,-4.5044 1.43838,-1.21127 3.40669,-1.8926 4.16373,-3.7095 1.77905,-4.08803 -1.36267,-6.69982 -4.05017,-9.08451 -2.11972,-1.93045 -2.87676,-4.35299 -3.70951,-7.07834 -0.49207,-1.55193 -0.83274,-2.87676 -1.13556,-4.50439 -0.71919,-4.20159 -2.42253,-8.28961 -3.48239,-12.45334 -1.21127,-4.76937 -2.61179,-9.53873 -4.5801,-14.04313 -2.49824,-5.75352 -7.22975,-10.48503 -12.5669,-13.6646 -3.10387,-1.77905 -6.13204,-2.7632 -9.65228,-3.17958 -1.51408,-0.18926 -6.96478,-0.22711 -6.09419,-2.99031 0.30282,-0.98416 1.43838,-1.62764 2.34683,-1.96831 4.73151,-1.8169 10.33362,-0.71919 14.95158,0.8706 2.08186,0.71919 4.16373,2.04401 6.01848,3.29313 1.24912,0.79489 2.15757,1.96831 3.36884,2.7632 1.09771,0.71919 2.00616,1.55194 3.02816,2.34683 4.65581,3.67165 12.30193,-1.47623 16.2764,-4.05017 1.47623,-0.9463 2.87676,-1.96831 4.31514,-3.02817 12.56689,-9.72799 22.33273,-21.7271 24.75527,-37.73853 0.26496,-2.00616 0.71919,-3.97447 1.05986,-5.94278 0.26496,-1.70334 0.37852,-3.02817 2.38468,-3.44454 4.23943,-0.8706 5.90492,4.69366 6.66196,7.83538 0.68134,2.72535 1.24912,5.48855 1.09772,8.28961 -0.15141,2.53609 -1.17342,5.82922 1.28697,7.57042 3.40668,2.42253 9.19805,-0.18926 12.64259,-1.24912 0.71919,-0.22711 1.40053,-0.34067 2.11972,-0.45423 3.44454,-0.49207 6.85123,0.15141 10.22006,0.41638 2.15757,0.18926 4.54226,0.34066 6.66197,-0.18926 1.28697,-0.34067 2.57394,-0.94631 3.36884,-2.08187 0.8706,-1.21127 0.75704,-2.72535 1.24912,-4.05017 0.49207,-1.36268 1.51408,-2.19542 2.6875,-3.02817 1.13556,-1.05986 3.25528,-2.04401 3.7852,-3.7095 z"
         style="fill:#757f3f;stroke-width:3.78521"
         id="path25" /></clipPath></defs><sodipodi:namedview
     id="namedview20"
     pagecolor="#ffffff"
     bordercolor="#666666"
     borderopacity="1.0"
     inkscape:showpageshadow="2"
     inkscape:pageopacity="0.0"
     inkscape:pagecheckerboard="0"
     inkscape:deskcolor="#d1d1d1"
     inkscape:zoom="9.2421875"
     inkscape:cx="60.267117"
     inkscape:cy="79.905325"
     inkscape:window-width="2560"
     inkscape:window-height="1382"
     inkscape:window-x="0"
     inkscape:window-y="26"
     inkscape:window-maximized="1"
     inkscape:current-layer="g20" /><path
     d="m 110.55,73.39 c 0,0 4.47,-5.22 6.99,-11.88 l -6.16,-0.85 -3.24,7.2 z"
     style="fill:#2f2f2f"
     id="path1" /><path
     d="m 119.23,51.38 c 0,0 0.71,3.32 -0.46,6.39 l -5.68,-2.61 0.9,-4.41 z"
     style="fill:#2f2f2f"
     id="path2" /><path
     d="m 98.99,81.14 c 0,0 4.1,-0.4 7.13,-3.17 l -11.11,-8.19 -9.39,6.05 1.75,6.37 z"
     style="fill:#2f2f2f"
     id="path3" /><path
     d="m 20.9,103.3 c 1.92,-1.74 3.63,-3.69 4.95,-5.97 1.18,-2.06 2.01,-4.31 3.35,-6.29 1.52,-2.22 3.13,-3.48 5.54,-4.67 3.84,-1.91 7.07,0.81 10.93,0.88 3.36,0.06 6.35,-0.67 9.51,-1.7 2.61,-0.84 5.05,-2.09 7.86,-2.29 2.82,-0.19 6.33,1.46 7.54,4.04 1.77,3.78 -0.43,6.66 -3.18,9.21 -1.09,1.01 -2.23,2.14 -3.53,2.89 -0.8,0.46 -1.73,0.62 -2.53,1.09 -1.23,0.7 -2.29,1.73 -3.44,2.57 -1.16,0.84 -2.35,1.62 -3.64,2.25 -1.22,0.6 -2.42,1.24 -3.75,1.56 -1.17,0.28 -2.34,0.57 -3.51,0.87 -1.13,0.29 -2.29,0.55 -3.38,0.95 -1.09,0.4 -1.99,0.95 -2.96,1.59 -0.68,0.45 -1.32,0.95 -1.94,1.48 -1.33,1.13 -2.74,2.26 -3.99,3.48 -1.15,1.1 -2.91,1.6 -4.41,2.09 -3.47,1.13 -7.24,1.56 -10.79,0.54 -2.29,-0.65 -4.91,-1.78 -6.58,-3.53 -0.63,-0.65 -1.06,-1.48 -1,-2.4 0.02,-0.19 0.07,-0.37 0.04,-0.57 -0.02,-0.18 -0.08,-0.28 -0.04,-0.48 0.08,-0.36 0.3,-0.71 0.49,-1.02 0.33,-0.57 0.89,-0.84 1.41,-1.2 2.41,-1.68 4.86,-3.4 7.05,-5.37 z"
     style="fill:#ed6c30"
     id="path4" /><path
     d="m 32.06,100.1 c 0.26,-0.26 0.44,-0.65 0.5,-1.08 0.15,-1.04 0.25,-2.08 0.34,-3.13 0.05,-0.61 0.1,-1.19 0.08,-1.81 0,-0.19 -0.13,-0.38 -0.27,-0.5 -0.15,-0.14 -0.23,-0.14 -0.47,-0.11 -0.17,0.03 -0.24,0.11 -0.37,0.18 -0.18,0.09 -0.39,0.11 -0.59,0.15 -0.63,0.11 -1.21,0.4 -1.81,0.56 -0.73,0.18 -1.43,0.47 -2.14,0.69 -0.41,0.13 -0.65,0.23 -0.43,0.62 0.13,0.24 0.25,0.44 0.42,0.66 0.17,0.26 0.31,0.54 0.5,0.8 0.37,0.52 0.8,0.94 1.25,1.4 0.54,0.54 0.96,1.23 1.62,1.65 0.54,0.34 1.03,0.24 1.37,-0.08 z"
     style="fill:#ffffff"
     id="path5" /><path
     d="m 46.31,102.89 c 0.78,0.75 1.6,1.78 1.98,2.61 0.17,0.37 -0.1,0.51 -0.34,0.77 -0.24,0.25 -0.47,0.53 -0.8,0.66 -0.68,0.24 -1.4,0.37 -2.07,0.63 -0.21,0.08 -0.4,0.22 -0.62,0.24 -0.2,0.03 -0.41,0 -0.61,0 -0.22,0 -0.56,0 -0.66,-0.2 -0.05,-0.11 0,-0.29 -0.01,-0.41 -0.02,-0.25 -0.07,-0.48 -0.07,-0.75 0,-1.1 -0.46,-4.37 1.08,-4.78 0.44,-0.12 1.14,0.41 1.47,0.66 0.21,0.17 0.43,0.36 0.65,0.57 z"
     style="fill:#ffffff"
     id="path6" /><path
     d="m 53.79,89.71 c -0.18,0.79 -0.26,2.37 -1.45,2.11 -0.49,-0.11 -0.83,-0.56 -1.19,-0.89 -1.4,-1.27 -3.53,-3.25 -2.08,-5.15 0.6,-0.78 1.86,-1.03 2.79,-1.06 0.72,-0.03 2.33,0.03 2.38,1.05 0.06,1.32 -0.17,2.65 -0.45,3.94 z"
     style="display:inline;fill:#ffffff"
     id="path7" /><g
     id="g20"
     transform="matrix(0.26418621,0,0,0.26418621,-6.6516457,8.1360999)"
     style="display:inline"
     clip-path="url(#clipPath25)"><path
       d="m 255.99319,255.99433 110.85049,63.99671 -110.85049,191.99385 c 141.38068,0 255.9917,-114.61051 255.9917,-255.99056 0,-46.64165 -12.53559,-90.3316 -34.33115,-127.99716 h -221.6632 z"
       id="path34-4"
       style="display:inline;fill:url(#linearGradient1331)" /><path
       d="M 255.99054,0 C 161.2404,0 78.576848,51.513314 34.31224,128.0274 l 110.82781,191.96363 110.85049,-63.9967 V 127.99717 h 221.6632 C 433.38157,51.501975 350.72936,0 255.99054,0 Z"
       id="path36-1"
       style="fill:url(#linearGradient4633)" /><path
       d="m 0.00151177,255.99433 c 0,141.38005 114.60723823,255.99056 255.99168823,255.99056 L 366.84368,319.99103 255.9932,255.99433 145.14271,319.99103 34.314897,128.0274 C 12.531434,165.68239 0,209.35646 0,255.99056"
       id="path38-7"
       style="fill:url(#linearGradient2962)" /><path
       d="m 383.99094,255.99433 c 0,70.69003 -57.30741,127.99717 -127.99775,127.99717 -70.69034,0 -127.99773,-57.30714 -127.99773,-127.99717 0,-70.69002 57.30739,-127.99716 127.99773,-127.99716 70.69034,0 127.99775,57.30714 127.99775,127.99716"
       fill="#ffffff"
       id="path40"
       style="fill:#a7c7fa;fill-opacity:1" /><path
       d="m 359.99158,255.99433 c 0,57.43565 -46.56249,103.99794 -103.99839,103.99794 -57.4359,0 -103.9984,-46.56229 -103.9984,-103.99794 0,-57.43564 46.5625,-103.99793 103.9984,-103.99793 57.4359,0 103.99839,46.56229 103.99839,103.99793"
       id="path42-5"
       style="display:inline;fill:url(#linearGradient2688)" /></g><path
     d="m 57.85,68.84 c -0.48,2.15 0.76,4.47 2.76,5.19 2.01,0.7 4.03,-0.45 4.51,-2.59 0.47,-2.15 -0.76,-4.48 -2.77,-5.19 -2,-0.71 -4.03,0.45 -4.5,2.59 z"
     style="display:inline;fill:#2f2f2f"
     id="path9" /><path
     d="m 15.47,92.13 c 0.57,1.35 -0.79,2.65 -2.14,2.21 -1.91,-0.61 -1.22,-3.93 0.96,-3.24 0.6,0.18 0.99,0.58 1.18,1.03 z"
     style="fill:#2f2f2f"
     id="path10" /><path
     d="m 6.03,89.02 c -0.77,0.93 -0.39,2.32 0.83,2.62 1.57,0.39 2.4,-1.62 1.39,-2.75 -0.72,-0.82 -1.66,-0.55 -2.22,0.13 z"
     style="fill:#2f2f2f"
     id="path11" /><g
     id="g19"><path
       d="M 73.07,58.54 C 73,58.33 72.8,58.21 72.56,58.27 l -3.15,0.81 c -0.17,0.04 -0.29,0.19 -0.32,0.37 -0.02,0.18 0.07,0.35 0.24,0.43 l 4.22,2.19 c 0.07,0.03 0.13,0.05 0.2,0.05 h 0.01 0.01 c 0.24,0 0.43,-0.19 0.43,-0.43 0,-0.1 -0.03,-0.19 -0.09,-0.26 z"
       style="fill:#bdcf46"
       id="path12" /><path
       d="m 82.38,58.07 c 0.06,0.03 0.12,0.04 0.19,0.04 h 0.01 0.01 c 0.24,0 0.44,-0.19 0.44,-0.43 0,-0.08 -0.03,-0.16 -0.07,-0.23 L 82.28,54.8 c -0.03,-0.12 -0.11,-0.22 -0.21,-0.27 -0.11,-0.06 -0.23,-0.06 -0.35,-0.02 l -2.83,1.01 c -0.17,0.06 -0.28,0.21 -0.29,0.38 -0.01,0.17 0.08,0.33 0.24,0.41 z"
       style="fill:#bdcf46"
       id="path13" /><path
       d="m 90.57,50.96 c -0.02,-0.12 -0.11,-0.22 -0.21,-0.27 -0.11,-0.06 -0.24,-0.06 -0.35,-0.02 l -2.83,1.01 c -0.17,0.06 -0.28,0.21 -0.29,0.38 -0.01,0.17 0.09,0.34 0.24,0.41 l 3.55,1.76 c 0.05,0.03 0.12,0.04 0.19,0.04 h 0.01 v 0 c 0.24,0 0.44,-0.19 0.44,-0.43 0,-0.08 -0.03,-0.16 -0.07,-0.23 z"
       style="fill:#bdcf46"
       id="path14" /><path
       d="M 98.23,47.24 C 98.2,47.12 98.12,47.02 98.01,46.97 97.9,46.91 97.78,46.9 97.67,46.94 l -2.84,1.01 c -0.17,0.06 -0.28,0.21 -0.29,0.38 -0.01,0.17 0.09,0.34 0.24,0.41 l 3.54,1.76 c 0.06,0.03 0.12,0.04 0.19,0.04 h 0.01 c 0,0 0,0 0.01,0 0.25,0 0.43,-0.19 0.43,-0.43 0,-0.08 -0.02,-0.17 -0.06,-0.23 z"
       style="fill:#bdcf46"
       id="path15" /><path
       d="m 106.23,55.14 -0.82,-3.12 c -0.05,-0.22 -0.29,-0.37 -0.5,-0.31 l -2.37,0.45 c -0.16,0.03 -0.29,0.15 -0.34,0.31 -0.04,0.16 0.01,0.33 0.14,0.44 l 3.22,2.79 c 0.09,0.07 0.19,0.11 0.29,0.11 h 0.01 0.01 c 0.24,0 0.43,-0.19 0.43,-0.43 0,-0.09 -0.02,-0.17 -0.07,-0.24 z"
       style="fill:#bdcf46"
       id="path16" /><path
       d="M 97.7,56.13 C 97.67,56.02 97.6,55.92 97.5,55.86 97.39,55.8 97.27,55.79 97.17,55.82 l -2.56,0.74 c -0.16,0.05 -0.28,0.18 -0.31,0.34 -0.03,0.16 0.04,0.33 0.17,0.42 l 3.39,2.49 c 0.08,0.06 0.17,0.09 0.26,0.09 h 0.02 0.01 c 0.24,0 0.44,-0.19 0.44,-0.43 0,-0.08 -0.03,-0.16 -0.07,-0.23 z"
       style="fill:#bdcf46"
       id="path17" /><path
       d="m 90.42,59.91 c -0.04,-0.12 -0.1,-0.22 -0.21,-0.28 -0.12,-0.06 -0.25,-0.07 -0.35,-0.03 l -2.63,0.88 c -0.15,0.05 -0.27,0.19 -0.29,0.35 -0.03,0.16 0.05,0.32 0.17,0.42 l 3.42,2.39 c 0.08,0.05 0.16,0.08 0.25,0.08 h 0.01 0.01 c 0.24,0 0.44,-0.19 0.44,-0.43 0,-0.08 -0.02,-0.16 -0.06,-0.23 z"
       style="fill:#bdcf46"
       id="path18" /><path
       d="m 82.5,63.8 c -0.03,-0.11 -0.09,-0.21 -0.18,-0.28 -0.1,-0.06 -0.23,-0.09 -0.33,-0.07 l -3.04,0.58 c -0.16,0.03 -0.29,0.16 -0.33,0.32 -0.05,0.16 0.01,0.34 0.14,0.44 l 3.69,2.95 c 0.08,0.06 0.17,0.09 0.27,0.09 h 0.01 0.01 c 0.24,0 0.43,-0.19 0.43,-0.43 0,-0.08 -0.02,-0.15 -0.06,-0.21 z"
       style="fill:#bdcf46"
       id="path19" /></g></svg>
