<svg width="120" height="120" viewBox="0 0 120 120" fill="none" xmlns="http://www.w3.org/2000/svg">
<path d="M51.5 2C78.2848 2.00001 100 23.7152 100 50.5C100 55.3403 99.2868 60.0138 97.9668 64.4248C96.3529 64.1463 94.6935 64 93 64C85.8563 64 79.3168 66.5842 74.2627 70.8672V69.3682H28.7021V77.6387H68.4004C65.6129 82.0931 64 87.3579 64 93C64 94.4557 64.1084 95.8861 64.3154 97.2842C60.2327 98.4 55.9365 99 51.5 99C24.7152 99 3 77.2877 3 50.5C3 23.7123 24.7152 2 51.5 2ZM37.7012 81.4023C37.7012 87.6821 43.8795 92.7725 51.5 92.7725C59.1176 92.7725 65.2988 87.6792 65.2988 81.4023H37.7012ZM51.8975 7.6416C48.9607 7.81874 46.0215 12.9988 46.0215 17.459C46.0214 21.7655 44.86 28.7908 42.0742 32.6357C41.8856 24.3275 39.0853 19.0136 36.4678 18.8018C39.1608 25.6677 31.7031 34.1652 31.7031 43.8867C31.7032 48.315 33.4292 52.6479 36.3369 56.0547C34.6304 55.7475 32.9302 55.4038 31.2383 55.0244C27.2133 54.119 21.5373 52.8593 21.5547 52.958C22.6197 55.9702 23.7195 58.9273 28.3857 64.5947L28.8359 65.1172H74.123C79.9327 59.1276 81.4424 52.917 81.4424 52.917L71.042 54.9482C71.042 54.9482 68.8305 55.4911 65.627 56.0918C68.4445 52.7634 70.1132 48.5092 70.1133 43.9824C70.1133 37.2325 68.4702 33.6688 65.7598 28.9619C64.0824 26.0454 61.625 19.9712 63.7637 15.125C58.9116 18.973 57.5969 30.1317 57.3154 37.7783C56.4652 34.1016 56.6105 28.297 55.5078 24.8438C52.5769 15.6623 49.2773 11.9596 51.8975 7.6416Z" fill="#DA4E31"/>
<path fill-rule="evenodd" clip-rule="evenodd" d="M84.4562 87.4695L79.4081 83.3832C77.25 86.4714 76.2712 90.0714 76.4168 93.6151L82.8712 92.9364C82.8712 91.0464 83.3925 89.1482 84.4562 87.4695ZM98.575 84.2757L102.662 79.227C99.5725 77.0707 95.9693 76.097 92.4243 76.2451L93.1031 82.6982C95.0398 82.6945 96.9377 83.2412 98.575 84.2757Z" fill="#696969"/>
<path fill-rule="evenodd" clip-rule="evenodd" d="M90.8531 82.9563L90.1731 76.4962C86.5798 77.1334 83.2954 78.9334 80.825 81.6194L85.8688 85.7031C87.2738 84.2944 89.0119 83.3713 90.8531 82.9563ZM83.1206 95.1887L76.6606 95.8706C77.2806 99.3625 79.0056 102.672 81.7819 105.227L85.865 100.184C84.4939 98.8137 83.5414 97.0809 83.1206 95.1887ZM104.43 80.6469L100.346 85.6919C101.354 86.6944 102.106 87.87 102.611 89.1287H109.386C108.626 85.8669 106.899 82.9105 104.431 80.6469H104.43ZM112.261 92.9781C112.255 91.8 111.303 90.8569 110.13 90.8569L110.126 90.8519L109.505 90.8569H102.82H95.2187C95.21 90.8487 95.2069 90.8637 95.2 90.8569C94.63 90.2919 93.8863 90.0438 93.1431 90.0438C92.7565 90.0433 92.3737 90.1196 92.0168 90.2683C91.66 90.417 91.3362 90.6351 91.0644 90.91C89.9281 92.055 89.9356 93.905 91.0825 95.0412C91.6278 95.5832 92.3656 95.8871 93.1344 95.8863C93.8225 95.8863 94.5075 95.5881 95.0569 95.1075H110.142C110.704 95.1057 111.243 94.8812 111.64 94.4831C112.037 94.0851 112.26 93.5459 112.26 92.9837H112.262L112.261 92.9781ZM93 72.2C104.469 72.2 113.8 81.5312 113.8 93C113.8 104.469 104.469 113.8 93 113.8C81.5312 113.8 72.2 104.469 72.2 93C72.2 81.5312 81.5312 72.2 93 72.2ZM93 68C79.1931 68 68 79.1931 68 93C68 106.807 79.1931 118 93 118C106.807 118 118 106.807 118 93C118 79.1931 106.807 68 93 68Z" fill="#696969"/>
</svg>
