<svg xmlns="http://www.w3.org/2000/svg" xmlns:xlink="http://www.w3.org/1999/xlink" version="1.1" width="256" height="256" viewBox="0 0 256 256" xml:space="preserve">
<g style="stroke: none; stroke-width: 0; stroke-dasharray: none; stroke-linecap: butt; stroke-linejoin: miter; stroke-miterlimit: 10; fill: none; fill-rule: nonzero; opacity: 1;" transform="translate(1.4065934065934016 1.4065934065934016) scale(2.81 2.81)">
	<path d="M 68.85 90 h -47.7 C 9.469 90 0 80.531 0 68.85 v -47.7 C 0 9.469 9.469 0 21.15 0 h 47.7 C 80.531 0 90 9.469 90 21.15 v 47.7 C 90 80.531 80.531 90 68.85 90 z" style="stroke: none; stroke-width: 1; stroke-dasharray: none; stroke-linecap: butt; stroke-linejoin: miter; stroke-miterlimit: 10; fill: rgb(246,187,63); fill-rule: nonzero; opacity: 1;" transform=" matrix(1 0 0 1 0 0) " stroke-linecap="round"/>
	<path d="M 71.266 44.277 c -7.112 5.253 -17.446 8.042 -26.331 8.042 c -12.452 0 -23.672 -4.605 -32.146 -12.258 c -0.67 -0.605 -0.065 -1.427 0.735 -0.951 c 9.166 5.318 20.473 8.539 32.168 8.539 c 7.891 0 16.56 -1.643 24.537 -5.015 C 71.417 42.093 72.433 43.412 71.266 44.277 z M 74.227 40.904 c -0.908 -1.167 -6.01 -0.562 -8.323 -0.281 c -0.692 0.086 -0.8 -0.519 -0.173 -0.973 c 4.064 -2.854 10.744 -2.032 11.523 -1.081 c 0.778 0.973 -0.216 7.653 -4.021 10.852 c -0.584 0.497 -1.146 0.238 -0.886 -0.411 C 73.211 46.871 75.135 42.05 74.227 40.904 z" style="stroke: none; stroke-width: 1; stroke-dasharray: none; stroke-linecap: butt; stroke-linejoin: miter; stroke-miterlimit: 10; fill: rgb(0,0,0); fill-rule: nonzero; opacity: 1;" transform=" matrix(1 0 0 1 0 0) " stroke-linecap="round"/>
</g>
</svg>