<?xml version="1.0" encoding="utf-8"?>
<!DOCTYPE svg PUBLIC "-//W3C//DTD SVG 1.1//EN" "http://www.w3.org/Graphics/SVG/1.1/DTD/svg11.dtd">
<svg version="1.1" xmlns="http://www.w3.org/2000/svg" xmlns:xlink="http://www.w3.org/1999/xlink" x="0px" y="0px" viewBox="0 0 1000 1000" enable-background="new 0 0 1000 1000" xml:space="preserve">
<defs><style>.cls-1,.cls-3{stroke:#0c4c75;}.cls-1{stroke-width:0.1px;fill:url(#linear-gradient);}.cls-2{fill:#8c96a1;}.cls-3{stroke-width:0.1px;fill:url(#linear-gradient-2);}</style><linearGradient id="linear-gradient" x1="50" y1="101.02" x2="50" y2="4.05" gradientTransform="matrix(1, 0, 0, -1, 0, 102)" gradientUnits="userSpaceOnUse"><stop offset="0" stop-color="#70b0df"/><stop offset="0.5" stop-color="#1b81c5"/><stop offset="1" stop-color="#4a98ce"/></linearGradient><linearGradient id="linear-gradient-2" x1="50" y1="71.41" x2="50" y2="38.63" xlink:href="#linear-gradient"/></defs>
<g>
<g transform="translate(0.000000,511.000000) scale(0.100000,-0.100000)">
 <path class="cls-3" d="M4789.5,4403.4c-449.8-21-962.8-128.2-1366.6-287.1C1960.5,3542,936.5,2255.8,714.4,713.1l-32.5-229.7l-290.9-5.7L100,471.9v-400v-400l290.9-5.7l289-5.7l42.1-248.8c72.7-426.8,179.9-752.2,382.8-1158c495.7-989.6,1349.4-1764.8,2388.7-2172.5c239.3-93.8,545.5-178,846-231.6c273.7-49.8,1047-49.8,1320.7,0c643.1,116.7,1186.7,333,1707.3,681.4c679.5,453.6,1194.4,1043.2,1548.5,1770.5c202.9,417.3,327.3,821.1,386.7,1253.7l13.4,105.3l292.9,5.7l290.9,5.7v400v400l-290.9,5.8l-290.9,5.7l-32.5,229.7c-235.4,1628.9-1370.5,2976.4-2936.2,3483.6C5876.6,4349.8,5290.9,4428.2,4789.5,4403.4z M5440.2,3859.8c857.5-105.3,1628.9-478.5,2229.9-1081.4c1154.2-1152.3,1439.4-2896,715.9-4350.7c-214.4-428.7-423-715.8-775.2-1054.6c-890-859.4-2151.4-1223.1-3376.4-974.3c-530.2,107.2-1064.2,348.4-1502.5,677.6c-313.9,235.4-658.4,599.1-878.6,928.3c-1003,1500.6-798.2,3508.5,486.2,4785.2c585.7,583.8,1366.6,962.8,2201.2,1070C4724.4,3882.7,5254.6,3884.7,5440.2,3859.8z"/>
 <path class="cls-3" d="M1945.2,1367.7c-279.5-105.3-411.5-424.9-287.1-694.8c76.6-164.6,273.7-294.8,446-294.8c147.4,0,266-120.6,493.8-501.5c82.3-139.7,185.7-306.3,227.8-369.4c273.7-413.5,578-650.8,926.4-729.3c204.8-45.9,524.5-28.7,696.7,34.5c400,149.3,620.1,384.7,1087.2,1156.1c202.9,335,333.1,440.2,491.9,400c82.3-19.1,231.6-189.5,369.4-419.2c457.5-759.9,691-1004.9,1091-1142.7c166.5-59.3,509.1-65.1,614.4-11.5c91.9,45.9,197.2,151.2,239.3,241.2c49.8,103.4,57.4,290.9,17.2,398.1c-70.8,183.7-275.6,331.1-461.3,331.1c-153.1,0-268,118.7-526.4,551.2c-212.5,354.1-352.2,547.4-507.2,698.6c-287.1,283.3-576.1,392.4-980,371.3c-315.8-15.3-555.1-116.8-788.6-333.1c-170.4-157-296.7-327.3-522.5-700.5C4345.4-23.9,4265-129.1,4165.5-188.5c-195.2-114.8-327.3-17.2-608.7,455.6c-84.2,139.7-193.3,315.8-243.1,390.5c-329.2,491.9-717.8,736.9-1165.7,733.1C2069.6,1390.6,1977.7,1379.1,1945.2,1367.7z"/></g>
</g>
</svg>

